<svg width="825" height="86" viewBox="0 0 825 86" fill="none" xmlns="http://www.w3.org/2000/svg">
<g clip-path="url(#clip0)">
<g filter="url(#filter0_i)">
<path d="M564.92 62.16C565.4 62.48 566.92 63.16 569.48 64.2C572.04 65.24 575.04 65.76 578.48 65.76C581.84 65.76 584.32 65.04 585.92 63.6C587.52 62.08 588.56 59.68 589.04 56.4C589.6 53.04 589.88 48.68 589.88 43.32V0H613.28V43.32C613.28 49.8 612.88 55.68 612.08 60.96C611.36 66.24 609.84 70.8 607.52 74.64C605.2 78.48 601.72 81.44 597.08 83.52C592.44 85.52 586.24 86.52 578.48 86.52C571.28 86.52 565.12 84.76 560 81.24L564.92 62.16Z" fill="#FF8400"/>
<path d="M687.686 64.8V85.2H626.966V0H686.606V20.4H650.366V32.4H681.326V51.36H650.366V64.8H687.686Z" fill="#FF8400"/>
<path d="M698.567 85.2V0H757.007V20.4H721.967V34.56H750.527V53.52H721.967V85.2H698.567Z" fill="#FF8400"/>
<path d="M766.184 85.2V0H824.624V20.4H789.584V34.56H818.144V53.52H789.584V85.2H766.184Z" fill="#FF8400"/>
</g>
<g style="mix-blend-mode:darken" filter="url(#filter1_i)">
<path d="M39.1858 0.477777H65.2937L92.3597 85.2833H68.647L63.4973 68.6805H40.8624L35.8325 85.2833H12L39.1858 0.477777ZM59.7847 53.1528L52.2397 23.2917L44.3355 53.1528H59.7847Z" fill="#484848"/>
<path d="M163.736 85.2833V40.6111L149.485 72.025H137.03L122.778 40.6111V85.2833H99.4247V0.477777H124.934L143.257 40.3722L161.701 0.477777H187.09V85.2833H163.736Z" fill="#484848"/>
<path d="M221.284 0.477777H247.391L274.457 85.2833H250.745L245.595 68.6805H222.96L217.93 85.2833H194.098L221.284 0.477777ZM241.882 53.1528L234.337 23.2917L226.433 53.1528H241.882Z" fill="#484848"/>
<path d="M277.451 67.9639L316.014 20.7833H279.247V0.477777H344.158V17.7972L307.99 64.9778H344.876V85.2833H277.451V67.9639Z" fill="#484848"/>
<path d="M393.059 86C386.592 86 380.724 84.8055 375.454 82.4167C370.185 79.9481 365.634 76.6833 361.802 72.6222C358.049 68.4815 355.135 63.863 353.059 58.7667C351.063 53.5907 350.065 48.2556 350.065 42.7611C350.065 37.1074 351.143 31.7324 353.299 26.6361C355.454 21.5398 358.448 17.0009 362.281 13.0194C366.193 8.95833 370.784 5.77315 376.053 3.46388C381.403 1.15463 387.231 0 393.538 0C400.006 0 405.874 1.23426 411.143 3.70278C416.413 6.09167 420.924 9.35648 424.676 13.4972C428.429 17.638 431.303 22.2963 433.299 27.4722C435.375 32.5685 436.413 37.8241 436.413 43.2389C436.413 48.813 435.335 54.1481 433.179 59.2444C431.103 64.3407 428.109 68.9194 424.197 72.9806C420.365 76.962 415.814 80.1472 410.544 82.5361C405.275 84.8454 399.447 86 393.059 86ZM373.778 43C373.778 46.7426 374.456 50.3259 375.814 53.75C377.251 57.1741 379.407 59.9611 382.281 62.1111C385.235 64.2611 388.908 65.3361 393.299 65.3361C397.85 65.3361 401.522 64.2213 404.317 61.9917C407.191 59.762 409.307 56.9352 410.664 53.5111C412.022 50.0074 412.7 46.4241 412.7 42.7611C412.7 38.9389 411.982 35.3556 410.544 32.0111C409.107 28.6667 406.952 25.9593 404.077 23.8889C401.203 21.7389 397.57 20.6639 393.179 20.6639C388.708 20.6639 385.035 21.7787 382.161 24.0083C379.287 26.1583 377.171 28.9454 375.814 32.3694C374.456 35.7139 373.778 39.2574 373.778 43Z" fill="#484848"/>
<path d="M469.664 43.5972V85.2833H446.311V0.477777H464.515L498.647 43.5972V0.477777H522V85.2833H503.437L469.664 43.5972Z" fill="#484848"/>
</g>
</g>
<defs>
<filter id="filter0_i" x="560" y="0" width="264.624" height="90.52" filterUnits="userSpaceOnUse" color-interpolation-filters="sRGB">
<feFlood flood-opacity="0" result="BackgroundImageFix"/>
<feBlend mode="normal" in="SourceGraphic" in2="BackgroundImageFix" result="shape"/>
<feColorMatrix in="SourceAlpha" type="matrix" values="0 0 0 0 0 0 0 0 0 0 0 0 0 0 0 0 0 0 127 0" result="hardAlpha"/>
<feOffset dy="4"/>
<feGaussianBlur stdDeviation="2"/>
<feComposite in2="hardAlpha" operator="arithmetic" k2="-1" k3="1"/>
<feColorMatrix type="matrix" values="0 0 0 0 0 0 0 0 0 0 0 0 0 0 0 0 0 0 0.25 0"/>
<feBlend mode="normal" in2="shape" result="effect1_innerShadow"/>
</filter>
<filter id="filter1_i" x="12" y="0" width="510" height="90" filterUnits="userSpaceOnUse" color-interpolation-filters="sRGB">
<feFlood flood-opacity="0" result="BackgroundImageFix"/>
<feBlend mode="normal" in="SourceGraphic" in2="BackgroundImageFix" result="shape"/>
<feColorMatrix in="SourceAlpha" type="matrix" values="0 0 0 0 0 0 0 0 0 0 0 0 0 0 0 0 0 0 127 0" result="hardAlpha"/>
<feOffset dy="4"/>
<feGaussianBlur stdDeviation="2"/>
<feComposite in2="hardAlpha" operator="arithmetic" k2="-1" k3="1"/>
<feColorMatrix type="matrix" values="0 0 0 0 0 0 0 0 0 0 0 0 0 0 0 0 0 0 0.25 0"/>
<feBlend mode="normal" in2="shape" result="effect1_innerShadow"/>
</filter>
<clipPath id="clip0">
<rect width="825" height="86" fill="white"/>
</clipPath>
</defs>
</svg>
